inDegrees=yes
name=ik_data_2024_11_07_18_11
DataType=double
version=3
OpenSimVersion=4.5.1
endheader
time	pelvis_tilt	pelvis_list	pelvis_rotation	pelvis_tx	pelvis_ty	pelvis_tz	hip_flexion_r	hip_adduction_r	hip_rotation_r	knee_angle_r	knee_angle_r_beta	ankle_angle_r	subtalar_angle_r	mtp_angle_r	hip_flexion_l	hip_adduction_l	hip_rotation_l	knee_angle_l	knee_angle_l_beta	ankle_angle_l	subtalar_angle_l	mtp_angle_l	lumbar_extension	lumbar_bending	lumbar_rotation	arm_flex_r	arm_add_r	arm_rot_r	elbow_flex_r	pro_sup_r	wrist_flex_r	wrist_dev_r	arm_flex_l	arm_add_l	arm_rot_l	elbow_flex_l	pro_sup_l	wrist_flex_l	wrist_dev_l
10.0672	-11.08925668915605	0.1230116492331699	-14.56643789400083	0	0.9399999999999999	0	26.04151552554033	-4.389015376710817	-2.89889678095077	29.21093454596669	0.5098269854116736	-5.007804434110805	0	0	11.03559853461358	-2.654748867777424	2.564226791022283	0.5146463733129489	0.008982273697758836	-5.007804434110805	0	0	0	0	0	0	-7.200750858232452	0	69.30883496240116	46.1595065560111	0	0	0	-7.200750858232452	0	69.30883496240116	46.1595065560111	0	0
10.12784	-10.90022909626799	0.07868744550248399	-15.6607786131781	0	0.9399999999999999	0	26.59842972737219	-2.173571163376936	-2.682784325283494	27.95239820199811	0.48786138245341	-5.007773218929034	0	0	10.8006617016233	-2.857017154415396	1.485924381345468	0.5193206805205517	0.009063855748781206	-5.007773218929034	0	0	0	0	0	0	-7.204297388172558	0	69.31388964351314	46.15668336176443	0	0	0	-7.204297388172558	0	69.31388964351314	46.15668336176443	0	0
10.13152	-10.28631944402113	0.1884743632051922	-13.81247118506181	0	0.9399999999999999	0	26.98051346237011	-2.204827596502075	-4.708776272641604	27.60566300919745	0.4818097117065011	-5.007758996529769	0	0	10.2995955039772	-2.253607047318174	3.255602145545616	0.5147098448891801	0.008983381485745501	-5.007758996529769	0	0	0	0	0	0	-7.20591505547909	0	69.31619254605135	46.15539767374508	0	0	0	-7.20591505547909	0	69.31619254605135	46.15539767374508	0	0
10.18156	-9.619444102239676	0.1761501854651722	-13.53330644451664	0	0.9399999999999999	0	27.38911870057689	-1.749430050078868	-5.196014210541384	27.99391454839649	0.4885859793914602	-5.007743136199263	0	0	9.661294852167469	-2.067736166353567	3.510704384463079	0.512365648121264	0.008942467533830755	-5.007743136199263	0	0	0	0	0	0	-7.2077119800605	0	69.31875449647534	46.15396468674792	0	0	0	-7.2077119800605	0	69.31875449647534	46.15396468674792	0	0
10.24742	-9.258724432189805	0.1511093872539463	-14.1240847459264	0	0.9399999999999999	0	28.23698148919382	-1.125691070737169	-4.868994483974168	29.35046334582849	0.5122622223706182	-5.00771691735732	0	0	9.281591433874034	-2.101723897468851	2.920592527737337	0.508628427410392	0.008877240727552317	-5.00771691735732	0	0	0	0	0	0	-7.210690214947829	0	69.32299957727889	46.15159296058579	0	0	0	-7.210690214947829	0	69.32299957727889	46.15159296058579	0	0
10.29971	-9.0726505534628	0.1415956077464401	-14.02317777103112	0	0.9399999999999999	0	29.24752097355549	-0.6267182807527387	-5.219823685348493	31.00051243514614	0.5410610117987452	-5.007697462686377	0	0	9.091873173423416	-2.053755883866113	3.015514344620021	0.5012567063732067	0.008748579923914902	-5.007697462686377	0	0	0	0	0	0	-7.212909156138403	0	69.32616008138334	46.14983039672279	0	0	0	-7.212909156138403	0	69.32616008138334	46.14983039672279	0	0
10.30872	-8.736164731274592	0.1028723789431503	-14.91728574435954	0	0.9399999999999999	0	30.86065217011952	0.2415580268714973	-4.71579419010005	33.91512869438678	0.591930661954655	-5.007674084363998	0	0	8.735596884582222	-2.14328170682235	2.13080233924827	0.5024944909955799	0.008770183341005867	-5.007674084363998	0	0	0	0	0	0	-7.215597994677317	0	69.32998163985764	46.14770726376241	0	0	0	-7.215597994677317	0	69.32998163985764	46.14770726376241	0	0
10.36605	-8.347669490126339	0.1205949064131161	-14.79265075373364	0	0.9399999999999999	0	32.45642538201401	0.2726310763172372	-4.953939695211532	36.77854991833343	0.64190679018401	-5.007649813375271	0	0	8.352837008039574	-2.005865337680595	2.23185460858953	0.4963774379113933	0.008663420624167539	-5.007649813375271	0	0	0	0	0	0	-7.218400267851758	0	69.33396195084909	46.14549969877924	0	0	0	-7.218400267851758	0	69.33396195084909	46.14549969877924	0	0
10.42325	-7.754493925350153	0.1440432778866114	-14.1797298266447	0	0.9399999999999999	0	34.1003789427809	0.2146363242564795	-5.641438242999645	40.45611937180683	0.7060924856178892	-5.007623834410698	0	0	7.811101287834994	-1.756063562653468	2.818067379841889	0.503804042753448	0.008793039330905946	-5.007623834410698	0	0	0	0	0	0	-7.221407294114536	0	69.33823182866824	46.14313408886896	0	0	0	-7.221407294114536	0	69.33823182866824	46.14313408886896	0	0
10.48311	-7.39201372628579	0.2111758983156618	-13.00517072298176	0	0.9399999999999999	0	36.19944750216192	-0.3814146177888166	-6.768491356697638	44.03530337115019	0.7685610309411294	-5.007595369837473	0	0	7.504341854347297	-1.445922460293199	3.969468481877014	0.5107026786555564	0.008913443241294026	-5.007595369837473	0	0	0	0	0	0	-7.224708920875097	0	69.34291982290114	46.14053910682271	0	0	0	-7.224708920875097	0	69.34291982290114	46.14053910682271	0	0
10.48857	-7.334385429241445	0.1081940927065981	-14.92155421790417	0	0.9399999999999999	0	39.07499111113949	0.8623695749759263	-5.544566248095289	47.86049985223899	0.8353233040718301	-5.007567111319948	0	0	7.378041647469601	-1.782686548417982	2.066703538363887	0.5073988815425392	0.008855781103853993	-5.007567111319948	0	0	0	0	0	0	-7.227999082843679	0	69.34758908675056	46.13795877597588	0	0	0	-7.227999082843679	0	69.34758908675056	46.13795877597588	0	0
10.54804	-7.047146115373514	0.01233014009331363	-16.68264592672037	0	0.9399999999999999	0	41.74380220292917	1.841656104909231	-4.442646391201718	52.215225142685	0.9113275984099792	-5.007543052095076	0	0	7.011825620916098	-2.016793282814685	0.3288142255447665	0.4979387254812367	0.008690670232831767	-5.007543052095076	0	0	0	0	0	0	-7.230828695492178	0	69.35159461794625	46.13575537094044	0	0	0	-7.230828695492178	0	69.35159461794625	46.13575537094044	0	0
10.5997	-6.290754058596612	0.02744316878918435	-16.68914321544033	0	0.9399999999999999	0	43.83668186416408	1.613474838147008	-4.66134550595898	56.36848386555199	0.9838156378111828	-5.007514879607755	0	0	6.288301430570176	-1.792806932516559	0.2852235076858414	0.5093929725176946	0.008890584556954758	-5.007514879607755	0	0	0	0	0	0	-7.2341317727191	0	69.35627746186435	46.13317542025985	0	0	0	-7.2341317727191	0	69.35627746186435	46.13317542025985	0	0
10.66655	-5.588009990160328	-0.5255833614994095	-26.60528777945539	0	0.9399999999999999	0	45.64112945475903	8.654115792776581	1.726554681694916	60.80063306409251	1.061171234265343	-5.007341979550485	0	0	5.013200461601014	-3.018021370751281	-9.559322676245962	0.4963345856371567	0.008662672710890142	-5.007341979550485	0	0	0	0	0	0	-7.254748530770197	0	69.38548428823296	46.11720244159455	0	0	0	-7.254748530770197	0	69.38548428823296	46.11720244159455	0	0
10.66963	-5.170632936983862	-0.6654696004669164	-29.57265568599892	0	0.9399999999999999	0	48.30287312489281	10.66405871419821	3.178660636932746	65.35949671025789	1.140738415040402	-5.007228730073838	0	0	4.428775245690716	-3.192362113164095	-12.53220035349835	0.511632582699838	0.008929673128594353	-5.007228730073838	0	0	0	0	0	0	-7.268409607321956	0	69.40481155396475	46.10668489974471	0	0	0	-7.268409607321956	0	69.40481155396475	46.10668489974471	0	0
10.72315	-4.907565231954544	-0.8932367695560967	-33.9192313081788	0	0.9399999999999999	0	50.6807445903891	13.79289690076797	5.350068612028339	70.0250711051283	1.222168049727633	-5.007110450084656	0	0	3.823242243359414	-3.557882045963199	-16.87323277819987	0.5055629186985873	0.008823737507282754	-5.007110450084656	0	0	0	0	0	0	-7.282909612112022	0	69.42528338940078	46.09562261855086	0	0	0	-7.282909612112022	0	69.42528338940078	46.09562261855086	0	0
10.78315	-4.602794512923718	-1.053661040705499	-37.05892167319623	0	0.9399999999999999	0	52.59659801632667	16.40184250100135	6.590784577047954	73.91483235708881	1.290057190690841	-5.007011466275268	0	0	3.274352614067716	-3.710053659891572	-20.02047988768877	0.4936485700873343	0.008615792895785975	-5.007011466275268	0	0	0	0	0	0	-7.295212475535926	0	69.44262151921856	46.08630981853177	0	0	0	-7.295212475535926	0	69.44262151921856	46.08630981853177	0	0
